<svg width="339" height="336" viewBox="0 0 339 336" fill="none" xmlns="http://www.w3.org/2000/svg">
<rect width="339" height="336" fill="#F8F8F8"/>
<path d="M37.0913 157.623C38.0394 156.896 39.1174 156.325 40.3382 155.923C41.559 155.521 42.8188 155.326 44.1436 155.326C45.4683 155.326 46.845 155.521 48.1957 155.923C49.5594 156.325 50.6893 156.896 51.6114 157.623L51.6504 157.661L55.6116 154.508H55.5727C54.131 153.354 52.4686 152.458 50.5724 151.835C48.6892 151.213 46.6891 150.901 44.5851 150.901C42.4811 150.901 40.494 151.213 38.5978 151.835C36.7146 152.458 35.0392 153.354 33.5976 154.508C32.104 155.637 30.9741 156.961 30.1819 158.453C29.3896 159.945 29 161.515 29 163.137C29 164.759 29.3896 166.394 30.1819 167.873C30.9741 169.365 32.117 170.676 33.5976 171.831C35.0392 172.986 36.7017 173.881 38.5978 174.504C40.4811 175.127 42.4811 175.438 44.5851 175.438C46.6891 175.438 48.6762 175.127 50.5724 174.504C52.4556 173.881 54.131 172.986 55.5727 171.831H55.6116L51.6504 168.678H51.6114C50.6374 169.43 49.5204 170.001 48.2606 170.39C47.0008 170.78 45.6891 170.974 44.3514 170.974C43.0136 170.974 41.7019 170.78 40.4421 170.39C39.1823 170.001 38.0654 169.43 37.0913 168.678C36.1432 167.925 35.4289 167.069 34.9353 166.134C34.4418 165.187 34.195 164.188 34.195 163.124C34.195 162.06 34.4418 161.087 34.9353 160.14C35.4289 159.18 36.1562 158.336 37.0913 157.61V157.623ZM92.0549 158.466C91.2626 156.974 90.1197 155.663 88.6391 154.508C87.1975 153.354 85.5351 152.458 83.6389 151.835C81.7557 151.213 79.7556 150.901 77.6516 150.901C75.5476 150.901 73.5605 151.213 71.6643 151.835C69.7811 152.458 68.1057 153.354 66.6641 154.508C65.1705 155.637 64.0406 156.961 63.2483 158.453C62.4561 159.945 62.0665 161.515 62.0665 163.137C62.0665 164.759 62.4561 166.394 63.2483 167.873C64.0406 169.365 65.1835 170.676 66.6641 171.831C68.1057 172.986 69.7681 173.881 71.6643 174.504C73.5475 175.127 75.5476 175.438 77.6516 175.438C79.7556 175.438 81.7427 175.127 83.6389 174.504C85.5221 173.881 87.1975 172.986 88.6391 171.831C90.1327 170.676 91.2626 169.352 92.0549 167.847C92.8471 166.355 93.2367 164.772 93.2367 163.124C93.2367 161.476 92.8471 159.945 92.0549 158.453V158.466ZM86.2364 167.108C85.3533 168.314 84.1454 169.262 82.6259 169.975C81.1063 170.689 79.4439 171.039 77.6516 171.039C75.8593 171.039 74.1969 170.689 72.6773 169.975C71.1578 169.262 69.9499 168.314 69.0408 167.108C68.1447 165.901 67.6901 164.577 67.6901 163.15C67.6901 161.723 68.1317 160.425 69.0408 159.219C69.937 158.012 71.1448 157.065 72.6773 156.364C74.1969 155.663 75.8593 155.326 77.6516 155.326C79.4439 155.326 81.1063 155.676 82.6259 156.364C84.1454 157.065 85.3533 158.012 86.2364 159.219C87.1196 160.425 87.5612 161.736 87.5612 163.15C87.5612 164.564 87.1196 165.914 86.2364 167.108ZM119.264 164.876L101.172 150.862V175.451H106.809V161.476L124.901 175.49V150.901H119.264V164.876ZM158.201 160.879C158.668 160.036 158.889 159.128 158.889 158.155C158.889 156.831 158.474 155.624 157.655 154.508C156.824 153.406 155.707 152.523 154.292 151.874C152.876 151.226 151.343 150.901 149.694 150.901H135.174V175.451H149.694C151.343 175.451 152.876 175.127 154.292 174.478C155.707 173.829 156.824 172.947 157.655 171.844C158.487 170.741 158.889 169.521 158.889 168.198C158.889 167.237 158.655 166.329 158.201 165.473C157.746 164.629 157.11 163.851 156.305 163.137C157.11 162.475 157.733 161.723 158.201 160.866V160.879ZM152.188 170.183C151.473 170.754 150.642 171.026 149.668 171.026H140.784V165.395H149.85C150.772 165.395 151.564 165.667 152.239 166.225C152.915 166.783 153.252 167.432 153.252 168.185C153.252 168.937 152.902 169.599 152.188 170.17V170.183ZM152.239 160.062C151.564 160.607 150.772 160.905 149.85 160.944H140.784V155.313H149.668C150.629 155.313 151.473 155.598 152.188 156.156C152.902 156.727 153.252 157.389 153.252 158.142C153.252 158.894 152.915 159.504 152.239 160.049V160.062ZM230.126 164.11C231.022 162.8 231.477 161.385 231.477 159.841C231.477 158.219 230.957 156.714 229.931 155.352C228.905 153.989 227.516 152.899 225.775 152.095C224.022 151.29 222.113 150.888 220.035 150.888H207.749V175.438H213.385V168.859H220.048C220.424 168.859 220.944 168.833 221.606 168.794C222.178 170.235 222.944 171.441 223.905 172.402C225.697 174.192 227.983 175.191 230.737 175.412V170.494C229.503 170.209 228.464 169.638 227.581 168.756C227.269 168.444 226.905 167.964 226.477 167.302C228.009 166.472 229.23 165.408 230.126 164.097V164.11ZM225.061 162.138C224.542 162.839 223.84 163.384 222.957 163.799C222.074 164.214 221.1 164.422 220.035 164.422H213.372V155.326H220.035C221.1 155.326 222.074 155.533 222.957 155.949C223.84 156.364 224.542 156.922 225.061 157.61C225.581 158.31 225.84 159.05 225.84 159.854C225.84 160.659 225.581 161.437 225.061 162.138ZM265.31 164.11C266.206 162.8 266.66 161.385 266.66 159.841C266.66 158.219 266.141 156.714 265.115 155.352C264.089 153.989 262.699 152.899 260.959 152.095C259.218 151.29 257.296 150.888 255.218 150.888H242.932V175.438H248.569V168.859H255.231C255.608 168.859 256.127 168.833 256.79 168.794C257.361 170.235 258.127 171.441 259.089 172.402C260.881 174.192 263.167 175.191 265.92 175.412V170.494C264.686 170.209 263.647 169.638 262.764 168.756C262.452 168.444 262.089 167.964 261.66 167.302C263.193 166.472 264.413 165.408 265.31 164.097V164.11ZM260.244 162.138C259.725 162.839 259.024 163.384 258.14 163.799C257.257 164.214 256.283 164.422 255.218 164.422H248.556V155.326H255.218C256.283 155.326 257.257 155.533 258.14 155.949C259.024 156.364 259.725 156.922 260.244 157.61C260.764 158.31 261.024 159.05 261.024 159.854C261.024 160.659 260.764 161.437 260.244 162.138ZM197.839 175.399L181.76 146.256L165.682 175.399L173.253 175.49V175.451L175.526 171.208L178.007 166.459L181.747 159.348L185.618 166.628L188.02 171.247L190.293 175.49L197.826 175.399H197.839ZM293.934 146.256L277.856 175.399L285.427 175.49V175.451L287.7 171.208L290.181 166.459L293.921 159.348L297.792 166.628L300.194 171.247L302.467 175.49L310 175.399L293.921 146.256H293.934Z" fill="#68676C"/>
<path d="M200.397 151.148C189.071 157.052 179.461 165.382 173.227 175.438C173.227 175.438 181.188 167.886 193.669 164.149L193.695 164.123C197.955 152.99 213.839 144.387 233.645 142.753C234.333 142.701 236.074 142.662 237.853 142.675C239.632 142.688 241.463 142.714 242.178 142.766C261.932 144.426 277.764 153.016 282.011 164.123L282.037 164.149C294.518 167.899 302.479 175.438 302.479 175.438C296.245 165.395 286.634 157.065 275.309 151.148C251.931 138.951 223.8 138.951 200.423 151.148H200.397Z" fill="#CB8F33"/>
<path d="M87.7948 193.136C87.0675 192.747 86.496 192.202 86.0804 191.514C85.6648 190.827 85.457 190.048 85.457 189.179C85.457 188.31 85.6648 187.531 86.0804 186.843C86.496 186.156 87.0675 185.611 87.7948 185.221C88.5221 184.832 89.3273 184.637 90.2365 184.637C91.0027 184.637 91.6911 184.767 92.3015 185.04C92.9119 185.312 93.4314 185.688 93.847 186.195L92.5353 187.401C91.9378 186.714 91.2105 186.376 90.3274 186.376C89.7819 186.376 89.3014 186.493 88.8728 186.739C88.4442 186.973 88.1195 187.31 87.8727 187.739C87.639 188.167 87.5091 188.647 87.5091 189.192C87.5091 189.737 87.626 190.217 87.8727 190.645C88.1065 191.073 88.4442 191.398 88.8728 191.644C89.3014 191.878 89.7819 192.008 90.3274 192.008C91.2105 192.008 91.9378 191.657 92.5353 190.97L93.847 192.176C93.4314 192.682 92.9119 193.072 92.2885 193.344C91.6651 193.617 90.9768 193.746 90.2235 193.746C89.3273 193.746 88.5221 193.552 87.7948 193.162V193.136Z" fill="#CB8F33"/>
<path d="M104.107 193.124C103.379 192.734 102.795 192.189 102.379 191.502C101.964 190.814 101.756 190.035 101.756 189.179C101.756 188.323 101.964 187.544 102.379 186.856C102.795 186.169 103.366 185.624 104.107 185.234C104.834 184.845 105.665 184.651 106.574 184.651C107.483 184.651 108.302 184.845 109.042 185.234C109.769 185.624 110.341 186.169 110.756 186.856C111.172 187.544 111.38 188.323 111.38 189.179C111.38 190.035 111.172 190.814 110.756 191.502C110.341 192.189 109.769 192.734 109.042 193.124C108.315 193.513 107.496 193.707 106.574 193.707C105.652 193.707 104.834 193.513 104.107 193.124ZM107.977 191.631C108.393 191.398 108.73 191.06 108.964 190.632C109.198 190.204 109.328 189.724 109.328 189.179C109.328 188.634 109.211 188.154 108.964 187.726C108.73 187.298 108.393 186.973 107.977 186.727C107.561 186.48 107.094 186.363 106.574 186.363C106.055 186.363 105.587 186.48 105.172 186.727C104.756 186.973 104.418 187.298 104.185 187.726C103.951 188.154 103.821 188.634 103.821 189.179C103.821 189.724 103.938 190.204 104.185 190.632C104.418 191.06 104.756 191.385 105.172 191.631C105.587 191.865 106.055 191.995 106.574 191.995C107.094 191.995 107.561 191.878 107.977 191.631Z" fill="#CB8F33"/>
<path d="M128.265 184.78V193.565H126.589L122.212 188.232V193.565H120.199V184.78H121.888L126.251 190.113V184.78H128.265Z" fill="#CB8F33"/>
<path d="M138.498 193.435C137.849 193.24 137.329 193.007 136.939 192.695L137.628 191.164C138.004 191.437 138.446 191.657 138.966 191.826C139.485 191.995 140.005 192.072 140.524 192.072C141.095 192.072 141.524 191.982 141.81 191.813C142.083 191.644 142.225 191.411 142.225 191.125C142.225 190.918 142.147 190.749 141.979 190.606C141.823 190.464 141.602 190.36 141.355 190.269C141.095 190.191 140.758 190.087 140.316 189.996C139.641 189.841 139.095 189.685 138.667 189.516C138.238 189.361 137.875 189.101 137.563 188.751C137.251 188.4 137.108 187.933 137.108 187.349C137.108 186.843 137.251 186.376 137.524 185.961C137.797 185.546 138.212 185.221 138.771 184.975C139.329 184.728 140.005 184.612 140.81 184.612C141.368 184.612 141.914 184.676 142.459 184.806C142.992 184.936 143.459 185.131 143.862 185.377L143.238 186.921C142.433 186.467 141.615 186.234 140.797 186.234C140.225 186.234 139.81 186.324 139.537 186.506C139.264 186.688 139.134 186.934 139.134 187.233C139.134 187.531 139.29 187.752 139.602 187.907C139.914 188.05 140.394 188.193 141.044 188.336C141.719 188.491 142.264 188.66 142.693 188.816C143.122 188.971 143.485 189.231 143.797 189.568C144.109 189.906 144.251 190.373 144.251 190.957C144.251 191.463 144.109 191.917 143.836 192.332C143.55 192.747 143.135 193.072 142.576 193.318C142.018 193.565 141.329 193.681 140.524 193.681C139.823 193.681 139.16 193.591 138.511 193.396L138.498 193.435Z" fill="#CB8F33"/>
<path d="M153.902 192.669C153.2 191.969 152.85 190.983 152.85 189.698V184.78H154.889V189.62C154.889 191.19 155.538 191.982 156.85 191.982C157.486 191.982 157.967 191.787 158.304 191.411C158.642 191.034 158.811 190.438 158.811 189.62V184.78H160.824V189.698C160.824 190.983 160.473 191.982 159.772 192.669C159.071 193.357 158.097 193.707 156.837 193.707C155.577 193.707 154.603 193.357 153.902 192.669Z" fill="#CB8F33"/>
<path d="M170.098 184.78H172.137V191.904H176.54V193.565H170.098V184.78Z" fill="#CB8F33"/>
<path d="M185.969 186.441H183.15V184.78H190.813V186.441H187.995V193.565H185.956V186.441H185.969Z" fill="#CB8F33"/>
<path d="M200.866 193.124C200.139 192.734 199.555 192.189 199.139 191.502C198.723 190.814 198.516 190.035 198.516 189.179C198.516 188.323 198.723 187.544 199.139 186.856C199.555 186.169 200.126 185.624 200.866 185.234C201.594 184.845 202.425 184.651 203.334 184.651C204.243 184.651 205.061 184.845 205.802 185.234C206.529 185.624 207.1 186.169 207.516 186.856C207.932 187.544 208.139 188.323 208.139 189.179C208.139 190.035 207.932 190.814 207.516 191.502C207.1 192.189 206.529 192.734 205.802 193.124C205.074 193.513 204.256 193.707 203.334 193.707C202.412 193.707 201.594 193.513 200.866 193.124ZM204.737 191.631C205.152 191.398 205.49 191.06 205.724 190.632C205.958 190.204 206.087 189.724 206.087 189.179C206.087 188.634 205.971 188.154 205.724 187.726C205.49 187.298 205.152 186.973 204.737 186.727C204.321 186.48 203.854 186.363 203.334 186.363C202.815 186.363 202.347 186.48 201.931 186.727C201.516 186.973 201.178 187.298 200.944 187.726C200.711 188.154 200.581 188.634 200.581 189.179C200.581 189.724 200.698 190.204 200.944 190.632C201.178 191.06 201.516 191.385 201.931 191.631C202.347 191.865 202.815 191.995 203.334 191.995C203.854 191.995 204.321 191.878 204.737 191.631Z" fill="#CB8F33"/>
<path d="M222.554 193.565L220.853 191.112H218.982V193.565H216.943V184.78H220.749C221.528 184.78 222.203 184.91 222.775 185.17C223.346 185.429 223.788 185.792 224.1 186.272C224.411 186.753 224.567 187.311 224.567 187.972C224.567 188.634 224.411 189.192 224.1 189.659C223.788 190.126 223.346 190.49 222.762 190.749L224.736 193.578H222.554V193.565ZM222.035 186.83C221.71 186.571 221.255 186.441 220.645 186.441H218.982V189.503H220.645C221.255 189.503 221.723 189.374 222.035 189.101C222.346 188.829 222.515 188.452 222.515 187.972C222.515 187.492 222.359 187.103 222.035 186.83Z" fill="#CB8F33"/>
<path d="M233.463 184.78H235.502V193.565H233.463V184.78Z" fill="#CB8F33"/>
<path d="M250.658 191.683H246.58L245.801 193.565H243.723L247.645 184.78H249.658L253.593 193.565H251.463L250.684 191.683H250.658ZM250.009 190.139L248.619 186.778L247.229 190.139H250.022H250.009Z" fill="#CB8F33"/>
</svg>
