<svg width="878" height="162" viewBox="0 0 878 162" fill="none" xmlns="http://www.w3.org/2000/svg">
<path d="M183.63 159.562C181.358 158.346 179.572 156.643 178.273 154.494C176.975 152.344 176.325 149.911 176.325 147.194C176.325 144.477 176.975 142.044 178.273 139.895C179.572 137.746 181.358 136.043 183.63 134.826C185.903 133.61 188.419 133.001 191.26 133.001C193.654 133.001 195.805 133.407 197.713 134.259C199.62 135.11 201.243 136.286 202.542 137.868L198.443 141.639C196.576 139.49 194.304 138.435 191.544 138.435C189.839 138.435 188.338 138.8 186.999 139.571C185.659 140.301 184.645 141.355 183.874 142.693C183.143 144.031 182.737 145.532 182.737 147.235C182.737 148.938 183.103 150.438 183.874 151.777C184.604 153.115 185.659 154.129 186.999 154.899C188.338 155.629 189.839 156.034 191.544 156.034C194.304 156.034 196.576 154.94 198.443 152.79L202.542 156.562C201.243 158.143 199.62 159.36 197.672 160.211C195.724 161.063 193.573 161.468 191.219 161.468C188.419 161.468 185.903 160.86 183.63 159.644V159.562Z" fill="#CB8F33"/>
<path d="M234.603 159.521C232.33 158.305 230.504 156.602 229.205 154.452C227.907 152.303 227.257 149.87 227.257 147.194C227.257 144.517 227.907 142.084 229.205 139.935C230.504 137.786 232.29 136.083 234.603 134.866C236.876 133.65 239.473 133.042 242.314 133.042C245.155 133.042 247.711 133.65 250.024 134.866C252.297 136.083 254.083 137.786 255.381 139.935C256.68 142.084 257.329 144.517 257.329 147.194C257.329 149.87 256.68 152.303 255.381 154.452C254.083 156.602 252.297 158.305 250.024 159.521C247.752 160.738 245.195 161.346 242.314 161.346C239.432 161.346 236.876 160.738 234.603 159.521ZM246.697 154.858C247.995 154.128 249.051 153.074 249.781 151.736C250.512 150.397 250.917 148.897 250.917 147.194C250.917 145.491 250.552 143.99 249.781 142.652C249.051 141.314 247.995 140.3 246.697 139.53C245.398 138.759 243.937 138.394 242.314 138.394C240.69 138.394 239.229 138.759 237.931 139.53C236.632 140.3 235.577 141.314 234.846 142.652C234.116 143.99 233.71 145.491 233.71 147.194C233.71 148.897 234.075 150.397 234.846 151.736C235.577 153.074 236.632 154.088 237.931 154.858C239.229 155.588 240.69 155.993 242.314 155.993C243.937 155.993 245.398 155.628 246.697 154.858Z" fill="#CB8F33"/>
<path d="M310.087 133.447V160.9H304.852L291.176 144.234V160.9H284.885V133.447H290.161L303.797 150.114V133.447H310.087Z" fill="#CB8F33"/>
<path d="M342.067 160.495C340.038 159.886 338.415 159.157 337.197 158.183L339.348 153.398C340.525 154.25 341.905 154.939 343.528 155.466C345.152 155.993 346.775 156.237 348.398 156.237C350.184 156.237 351.523 155.953 352.416 155.426C353.268 154.899 353.715 154.169 353.715 153.277C353.715 152.628 353.471 152.101 352.944 151.655C352.457 151.209 351.767 150.884 350.996 150.6C350.184 150.357 349.129 150.033 347.749 149.749C345.639 149.262 343.934 148.775 342.595 148.248C341.256 147.762 340.119 146.951 339.145 145.856C338.171 144.761 337.725 143.301 337.725 141.476C337.725 139.895 338.171 138.435 339.023 137.137C339.876 135.84 341.174 134.826 342.92 134.055C344.665 133.285 346.775 132.92 349.291 132.92C351.036 132.92 352.741 133.123 354.445 133.528C356.109 133.934 357.57 134.542 358.828 135.312L356.88 140.138C354.364 138.719 351.807 137.989 349.25 137.989C347.465 137.989 346.166 138.273 345.314 138.84C344.462 139.408 344.056 140.179 344.056 141.111C344.056 142.044 344.543 142.733 345.517 143.22C346.491 143.666 347.992 144.112 350.022 144.558C352.132 145.045 353.836 145.572 355.176 146.058C356.515 146.545 357.651 147.356 358.625 148.41C359.599 149.465 360.046 150.925 360.046 152.749C360.046 154.331 359.599 155.75 358.747 157.048C357.854 158.345 356.555 159.359 354.81 160.13C353.065 160.9 350.914 161.265 348.398 161.265C346.207 161.265 344.137 160.981 342.108 160.373L342.067 160.495Z" fill="#CB8F33"/>
<path d="M390.199 158.102C388.007 155.913 386.912 152.831 386.912 148.816V133.447H393.283V148.573C393.283 153.48 395.312 155.953 399.411 155.953C401.4 155.953 402.901 155.345 403.957 154.169C405.012 152.993 405.539 151.128 405.539 148.573V133.447H411.83V148.816C411.83 152.831 410.734 155.953 408.542 158.102C406.351 160.252 403.307 161.346 399.371 161.346C395.434 161.346 392.39 160.252 390.199 158.102Z" fill="#CB8F33"/>
<path d="M440.807 133.447H447.178V155.71H460.936V160.9H440.807V133.447Z" fill="#CB8F33"/>
<path d="M490.399 138.638H481.593V133.447H505.537V138.638H496.73V160.9H490.359V138.638H490.399Z" fill="#CB8F33"/>
<path d="M536.948 159.521C534.675 158.305 532.849 156.602 531.551 154.452C530.252 152.303 529.603 149.87 529.603 147.194C529.603 144.517 530.252 142.084 531.551 139.935C532.849 137.786 534.635 136.083 536.948 134.866C539.221 133.65 541.818 133.042 544.659 133.042C547.5 133.042 550.056 133.65 552.37 134.866C554.642 136.083 556.428 137.786 557.727 139.935C559.025 142.084 559.675 144.517 559.675 147.194C559.675 149.87 559.025 152.303 557.727 154.452C556.428 156.602 554.642 158.305 552.37 159.521C550.097 160.738 547.54 161.346 544.659 161.346C541.777 161.346 539.221 160.738 536.948 159.521ZM549.042 154.858C550.341 154.128 551.396 153.074 552.126 151.736C552.857 150.397 553.263 148.897 553.263 147.194C553.263 145.491 552.897 143.99 552.126 142.652C551.396 141.314 550.341 140.3 549.042 139.53C547.743 138.759 546.282 138.394 544.659 138.394C543.036 138.394 541.575 138.759 540.276 139.53C538.977 140.3 537.922 141.314 537.192 142.652C536.461 143.99 536.055 145.491 536.055 147.194C536.055 148.897 536.421 150.397 537.192 151.736C537.922 153.074 538.977 154.088 540.276 154.858C541.575 155.588 543.036 155.993 544.659 155.993C546.282 155.993 547.743 155.628 549.042 154.858Z" fill="#CB8F33"/>
<path d="M604.721 160.9L599.405 153.236H593.561V160.9H587.189V133.447H599.08C601.515 133.447 603.626 133.853 605.411 134.664C607.197 135.475 608.577 136.61 609.551 138.111C610.525 139.611 611.012 141.355 611.012 143.423C611.012 145.491 610.525 147.235 609.551 148.694C608.577 150.154 607.197 151.29 605.371 152.101L611.539 160.941H604.721V160.9ZM603.098 139.854C602.083 139.043 600.663 138.638 598.756 138.638H593.561V148.208H598.756C600.663 148.208 602.124 147.802 603.098 146.951C604.072 146.099 604.6 144.923 604.6 143.423C604.6 141.922 604.113 140.706 603.098 139.854Z" fill="#CB8F33"/>
<path d="M638.812 133.447H645.183V160.9H638.812V133.447Z" fill="#CB8F33"/>
<path d="M692.544 155.02H679.801L677.366 160.9H670.873L683.129 133.447H689.42L701.716 160.9H695.061L692.626 155.02H692.544ZM690.515 150.195L686.173 139.692L681.831 150.195H690.556H690.515Z" fill="#CB8F33"/>
<path d="M25.2909 48.5465C28.2543 46.2885 31.6237 44.5144 35.4397 43.2645C39.2556 42.0146 43.1934 41.4097 47.3341 41.4097C51.4748 41.4097 55.7779 42.0146 59.9998 43.2645C64.2623 44.5144 67.7941 46.2885 70.6763 48.5465L70.7981 48.6675L83.1797 38.8695H83.0579C78.5518 35.281 73.3556 32.4989 67.4287 30.5635C61.5424 28.6281 55.2907 27.6604 48.7143 27.6604C42.1379 27.6604 35.9268 28.6281 29.9999 30.5635C24.1136 32.4989 18.8768 35.281 14.3707 38.8695C9.70227 42.3774 6.17048 46.4901 3.69417 51.127C1.21786 55.7639 0 60.6427 0 65.6828C0 70.7229 1.21786 75.8033 3.69417 80.3998C6.17048 85.0367 9.74287 89.1091 14.3707 92.6976C18.8768 96.2861 24.073 99.0683 29.9999 101.004C35.8862 102.939 42.1379 103.907 48.7143 103.907C55.2907 103.907 61.5018 102.939 67.4287 101.004C73.315 99.0683 78.5518 96.2861 83.0579 92.6976H83.1797L70.7981 82.8997H70.6763C67.6317 85.2383 64.1405 87.0124 60.2028 88.222C56.265 89.4316 52.1649 90.0365 47.9836 90.0365C43.8023 90.0365 39.7022 89.4316 35.7644 88.222C31.8267 87.0124 28.3355 85.2383 25.2909 82.8997C22.3274 80.5611 20.0947 77.8999 18.552 74.9968C17.0094 72.0534 16.2381 68.9487 16.2381 65.6424C16.2381 62.3362 17.0094 59.3121 18.552 56.3687C20.0947 53.385 22.368 50.7641 25.2909 48.5062V48.5465ZM197.09 51.1673C194.614 46.5305 191.041 42.4581 186.413 38.8695C181.907 35.281 176.711 32.4989 170.784 30.5635C164.898 28.6281 158.646 27.6604 152.07 27.6604C145.493 27.6604 139.282 28.6281 133.355 30.5635C127.469 32.4989 122.232 35.281 117.726 38.8695C113.058 42.3774 109.526 46.4901 107.05 51.127C104.573 55.7639 103.356 60.6427 103.356 65.6828C103.356 70.7229 104.573 75.8033 107.05 80.3998C109.526 85.0367 113.098 89.1091 117.726 92.6976C122.232 96.2861 127.429 99.0683 133.355 101.004C139.242 102.939 145.493 103.907 152.07 103.907C158.646 103.907 164.857 102.939 170.784 101.004C176.671 99.0683 181.907 96.2861 186.413 92.6976C191.082 89.1091 194.614 84.9964 197.09 80.3192C199.566 75.6823 200.784 70.7632 200.784 65.6424C200.784 60.5217 199.566 55.7639 197.09 51.127V51.1673ZM178.903 78.0209C176.143 81.7707 172.367 84.7141 167.618 86.9318C162.868 89.1494 157.672 90.238 152.07 90.238C146.468 90.238 141.271 89.1494 136.522 86.9318C131.772 84.7141 127.997 81.7707 125.155 78.0209C122.354 74.2711 120.933 70.1584 120.933 65.7231C120.933 61.2878 122.314 57.2558 125.155 53.506C127.956 49.7561 131.732 46.8127 136.522 44.6354C141.271 42.4581 146.468 41.4097 152.07 41.4097C157.672 41.4097 162.868 42.4984 167.618 44.6354C172.367 46.8127 176.143 49.7561 178.903 53.506C181.664 57.2558 183.044 61.3282 183.044 65.7231C183.044 70.1181 181.664 74.3114 178.903 78.0209ZM282.137 71.0857L225.588 27.5394V103.947H243.206V60.5217L299.755 104.068V27.6604H282.137V71.0857ZM403.842 58.667C405.303 56.0461 405.993 53.2237 405.993 50.1996C405.993 46.0869 404.694 42.3371 402.137 38.8695C399.539 35.4423 396.047 32.7005 391.622 30.6844C387.198 28.6684 382.407 27.6604 377.252 27.6604H331.866V103.947H377.252C382.407 103.947 387.198 102.939 391.622 100.923C396.047 98.907 399.539 96.1652 402.137 92.7379C404.735 89.3107 405.993 85.5205 405.993 81.4078C405.993 78.4241 405.262 75.6017 403.842 72.9405C402.421 70.3197 400.432 67.9004 397.915 65.6828C400.432 63.6264 402.38 61.2878 403.842 58.6267V58.667ZM385.046 87.5769C382.813 89.351 380.215 90.1977 377.171 90.1977H349.403V72.6986H377.739C380.621 72.6986 383.097 73.5453 385.208 75.2791C387.319 77.0129 388.375 79.0289 388.375 81.3675C388.375 83.7061 387.279 85.7625 385.046 87.5366V87.5769ZM385.208 56.1268C383.097 57.8202 380.621 58.7476 377.739 58.8686H349.403V41.3694H377.171C380.175 41.3694 382.813 42.2565 385.046 43.9903C387.279 45.7644 388.375 47.8207 388.375 50.1593C388.375 52.4979 387.319 54.393 385.208 56.0865V56.1268ZM628.658 68.7068C631.459 64.6344 632.88 60.2395 632.88 55.4413C632.88 50.4012 631.256 45.724 628.049 41.4904C624.842 37.2567 620.498 33.8698 615.059 31.3699C609.578 28.87 603.611 27.6201 597.116 27.6201H558.713V103.907H576.331V83.4642H597.156C598.334 83.4642 599.957 83.3835 602.028 83.2626C603.814 87.7382 606.209 91.488 609.213 94.4717C614.815 100.036 621.96 103.141 630.566 103.826V88.5446C626.71 87.6575 623.462 85.8834 620.701 83.1416C619.727 82.1739 618.591 80.6821 617.251 78.6257C622.041 76.0452 625.857 72.7389 628.658 68.6665V68.7068ZM612.826 62.5781C611.202 64.7554 609.01 66.4489 606.25 67.7391C603.489 69.0294 600.444 69.6745 597.116 69.6745H576.29V41.4097H597.116C600.444 41.4097 603.489 42.0549 606.25 43.3451C609.01 44.6354 611.202 46.3692 612.826 48.5062C614.45 50.6835 615.262 52.9818 615.262 55.4816C615.262 57.9815 614.45 60.4008 612.826 62.5781ZM738.631 68.7068C741.432 64.6344 742.853 60.2395 742.853 55.4413C742.853 50.4012 741.229 45.724 738.022 41.4904C734.815 37.2567 730.471 33.8698 725.031 31.3699C719.592 28.87 713.583 27.6201 707.088 27.6201H668.685V103.907H686.303V83.4642H707.129C708.306 83.4642 709.93 83.3835 712 83.2626C713.786 87.7382 716.182 91.488 719.186 94.4717C724.788 100.036 731.933 103.141 740.539 103.826V88.5446C736.682 87.6575 733.435 85.8834 730.674 83.1416C729.7 82.1739 728.563 80.6821 727.223 78.6257C732.014 76.0452 735.83 72.7389 738.631 68.6665V68.7068ZM722.799 62.5781C721.175 64.7554 718.983 66.4489 716.222 67.7391C713.462 69.0294 710.417 69.6745 707.088 69.6745H686.263V41.4097H707.088C710.417 41.4097 713.462 42.0549 716.222 43.3451C718.983 44.6354 721.175 46.3692 722.799 48.5062C724.422 50.6835 725.234 52.9818 725.234 55.4816C725.234 57.9815 724.422 60.4008 722.799 62.5781ZM527.78 104.068L477.481 13.2256L426.948 104.068H450.892L457.996 90.7622L465.749 76.0049L477.441 53.9091L489.538 76.529L497.048 90.8832L504.152 104.068H527.78ZM828.103 13.2256L777.63 104.068H801.513L808.617 90.7622L816.371 76.0049L828.062 53.9091L840.159 76.529L847.67 90.8832L854.774 104.068H878L828.062 13.2256H828.103Z" fill="#68676C"/>
<path d="M535.736 28.4261C500.337 46.772 470.377 72.8191 450.892 104.068C450.892 104.068 475.695 80.4397 514.707 68.8273L514.789 68.7467C528.104 34.1516 577.752 7.41901 639.66 2.33861C641.811 2.17733 647.251 2.05637 652.813 2.0967C658.374 2.13702 664.098 2.21766 666.331 2.37894C728.076 7.53998 777.562 34.2322 790.836 68.7467L790.918 68.8273C829.93 80.48 854.774 104.068 854.774 104.068C835.288 72.8594 805.288 46.8123 769.889 28.4261C696.818 -9.47535 608.889 -9.47535 535.817 28.4261H535.736Z" fill="#CB8F33"/>
</svg>
